<svg width="72" height="32" viewBox="0 0 72 32" fill="none" xmlns="http://www.w3.org/2000/svg">
<path d="M44.9673 0.122318C44.2169 0.318771 43.623 0.665836 43.0553 1.23555C42.618 1.67429 42.5071 1.84455 42.1286 2.61726C41.241 4.42461 40.4449 7.41068 40.0794 10.3051C39.9032 11.6475 39.9228 14.5681 40.1121 15.9563C40.4449 18.4382 41.241 21.2016 42.0307 22.6357C42.5984 23.6703 43.5055 24.6984 44.0733 24.9473C44.5693 25.1699 44.9151 25.0128 45.3132 24.3841C45.6983 23.7817 45.8679 23.2578 46.6249 20.3045C47.0295 18.7001 47.4211 17.2791 47.4864 17.1547C47.6299 16.8731 47.7865 16.8273 47.891 17.0237C47.9366 17.0958 48.0215 17.5083 48.0933 17.9274C48.5109 20.5468 49.6595 22.3476 51.167 22.7536C51.6303 22.878 52.4134 22.8714 52.6549 22.747C52.9877 22.5768 53.0464 22.3672 53.1117 21.0641C53.2748 18.0715 53.7186 16.1004 55.0434 12.5446C55.5981 11.0581 55.6307 10.8289 55.3436 10.4295C55.089 10.0824 54.4234 9.72226 54.0253 9.72226C52.6288 9.72881 51.6042 12.0338 50.7102 17.2136C50.5666 18.0256 50.4034 18.7983 50.3512 18.9293C50.1685 19.3746 49.8683 19.2043 49.5485 18.4906C49.1439 17.5672 49.046 16.7028 48.9677 13.5465C48.9221 11.6999 48.8503 11.2677 48.5762 11.0843C48.3412 10.9272 48.1259 11.0123 47.7343 11.4052C46.9969 12.1452 46.0898 13.9787 45.0848 16.7356C44.8629 17.338 44.6411 17.9078 44.5954 18.006C44.3409 18.4906 44.0211 18.1697 43.7992 17.2005C43.6426 16.4933 43.6426 13.2846 43.7992 11.9749C44.1777 8.91026 44.7128 7.07016 46.2007 3.67155C47.1405 1.54332 47.2384 1.16351 46.9839 0.659286C46.6641 0.0240936 46.005 -0.146166 44.9673 0.122318Z" fill="white"/>
<path d="M10.9673 3.79578C9.91659 3.97258 8.31122 4.98104 7.18876 6.16629C4.76112 8.73981 2.76418 12.0271 1.61562 15.3602C0.61063 18.2677 -0.094169 22.4391 0.0102457 24.8423C0.0885567 26.5711 0.375697 27.3569 1.2567 28.2409C2.34653 29.3345 3.49509 29.8191 4.25209 29.4982C4.57186 29.3673 4.859 28.994 4.94384 28.6076C4.98952 28.385 5.01563 27.298 5.0091 25.4775C5.00257 21.7187 5.13962 20.3632 5.80526 17.7046C6.57532 14.6203 8.13502 11.1758 8.96381 10.7305C9.12696 10.6388 9.14653 10.6454 9.27053 10.7895C9.38799 10.9401 9.39452 11.0187 9.34231 12.1646C9.31621 12.8326 9.2901 14.0768 9.29663 14.9215C9.30316 17.1152 9.4663 18.3856 9.82523 19.1125C10.0536 19.5643 10.2625 19.6953 10.5561 19.5774C10.8759 19.4399 11.1696 18.9619 11.7047 17.698C12.5074 15.799 13.4993 13.8476 14.1454 12.8784C14.8959 11.7586 15.1047 11.5163 15.1961 11.6473C15.2678 11.7586 15.2613 11.811 14.9611 13.3499C14.4064 16.2312 14.2498 17.5867 14.2498 19.7018C14.2498 21.2865 14.2629 21.4895 14.3934 22.0134C14.6283 22.9171 14.922 23.3886 15.4114 23.644C15.6333 23.7553 15.7573 23.7749 16.1423 23.7422C16.9189 23.6832 17.4214 23.382 17.5389 22.9105C17.5715 22.7861 17.6172 21.6794 17.6433 20.4549C17.7346 15.4716 18.0087 13.4285 18.9485 10.7436C19.2943 9.75481 19.3009 9.56491 18.9746 9.19165C18.7527 8.93626 18.2893 8.74636 17.6563 8.63504C16.1815 8.3731 14.5761 9.65004 12.9381 12.3742C12.4225 13.2386 12.1941 13.5201 12.0506 13.4612C11.8222 13.3761 11.8548 12.957 12.3573 9.55181C12.7815 6.67707 12.8467 6.10736 12.8076 5.68826C12.6771 4.20178 12.0962 3.60587 10.9673 3.79578Z" fill="white"/>
<path d="M35.4726 9.23772C35.2899 9.38178 35.1724 9.76814 35.1267 10.4033C35.0876 10.9338 35.0484 11.0844 34.807 11.5755C34.4089 12.3875 33.4496 13.7954 32.8166 14.483C32.7904 14.5157 32.6991 14.2669 32.6208 13.9264C32.2423 12.3024 31.9486 11.1368 31.8311 10.8224C31.7006 10.4819 31.681 10.4688 31.3613 10.3771C30.5716 10.161 29.3317 10.2003 28.7378 10.4623C28.4899 10.5736 28.4442 10.6194 28.4442 10.7766C28.4442 10.9927 28.7052 11.438 29.0707 11.844C29.273 12.0732 29.3839 12.3155 29.7233 13.337C29.9517 14.0115 30.3106 15.0134 30.5259 15.57L30.9175 16.5785L30.2519 17.3053C28.9663 18.7263 28.2615 19.6955 27.9417 20.4944C27.8112 20.8218 27.7851 20.9855 27.8046 21.3326C27.8699 22.4131 28.6008 23.1858 29.7494 23.3822C30.154 23.4543 30.2192 23.4477 30.3171 23.356C30.415 23.2513 30.4085 23.2185 30.2388 22.8322C29.795 21.863 30.1148 20.6778 31.2895 18.8573L31.6484 18.3138L32.2814 19.5776C33.2081 21.4374 33.6258 21.9743 34.2131 22.0857C34.5198 22.1446 34.931 22.0005 34.9571 21.8237C34.9701 21.7451 34.6438 20.704 34.2327 19.499C33.8281 18.2941 33.4235 17.0696 33.3386 16.7749L33.1885 16.2445L33.8346 15.4652C34.572 14.5812 35.7728 13.2126 36.8235 12.0732C38.1287 10.6587 38.1026 10.6915 38.1026 10.4426C38.1026 10.2789 38.0438 10.1414 37.9002 9.98423C37.4304 9.44072 35.8446 8.96269 35.4726 9.23772Z" fill="white"/>
<path d="M26.1205 9.76134C25.9508 9.83992 25.7876 10.1935 25.7289 10.6061L25.6898 10.9139L25.1612 10.665C24.3519 10.2852 23.9017 10.187 23.0924 10.2197C22.2832 10.2525 21.859 10.3965 21.2717 10.8287C19.6402 12.0336 18.6222 15.0459 18.7397 18.3201C18.831 20.9132 19.575 22.8188 20.7562 23.4671C21.0629 23.6374 21.1673 23.6636 21.6502 23.6636C22.1919 23.6636 22.1919 23.6636 22.3876 23.4344C22.6095 23.1659 23.1642 22.033 23.5166 21.1228L23.7711 20.4811L23.8821 20.7757C24.0256 21.1555 24.4042 21.6729 24.7239 21.9283C25.0633 22.2033 25.7224 22.4914 26.1923 22.5765C26.7926 22.6879 26.9362 22.6748 27.021 22.4849C27.0863 22.3408 27.0667 22.295 26.8644 22.0723C26.5055 21.6729 26.3032 21.2734 26.1531 20.6775C26.0291 20.1995 26.0161 20.0096 26.0487 19.0797C26.1009 17.5277 26.3228 16.5717 27.4518 13.0879C28.1892 10.8222 28.2349 10.6257 28.0913 10.3572C27.8825 9.95124 27.3082 9.68276 26.6556 9.68931C26.4402 9.68931 26.1923 9.72205 26.1205 9.76134ZM23.9995 11.8437C24.5542 12.1253 24.9066 12.8325 24.8349 13.5398C24.8153 13.7493 24.5542 14.6137 24.2149 15.5763C23.0533 18.9029 22.3485 20.6644 22.0875 20.874C21.846 21.077 21.4283 20.4221 21.1869 19.453C20.9911 18.6802 20.9715 16.7616 21.1542 15.9037C21.5327 14.1357 22.5051 12.1842 23.1708 11.8503C23.5166 11.68 23.6798 11.68 23.9995 11.8437Z" fill="white"/>
<path d="M65.7457 9.87293C65.6413 9.98426 65.6087 10.1545 65.576 10.7504C65.5369 11.3594 65.4977 11.569 65.3215 12.0012C64.9822 12.8328 64.3688 14.7515 64.0816 15.8385C63.7031 17.2988 63.5465 18.2287 63.5073 19.3092C63.4551 20.7826 63.677 21.5749 64.3231 22.2429C64.7277 22.662 65.1649 22.878 65.4912 22.8126C65.9089 22.734 66.1503 22.3935 66.9922 20.6778C67.4229 19.8003 67.8732 18.8573 67.9906 18.5889C68.3887 17.6524 68.5258 17.6262 68.2908 18.5299C67.1749 22.878 66.4114 25.0849 65.7196 25.9689C65.3737 26.4011 65.1519 26.4928 64.7016 26.3814C64.5188 26.3356 64.3035 26.3094 64.2382 26.3225C63.9315 26.388 64.1469 26.8267 64.5711 27.0101C64.6755 27.0559 65.0736 27.128 65.4521 27.1672C66.4962 27.2851 67.0444 27.1345 67.4359 26.6172C67.834 26.0933 68.3691 24.4235 69.3023 20.7957C70.5162 16.0415 70.7119 15.3998 71.5603 13.1537C72.115 11.6934 72.1215 11.6083 71.7104 11.163C71.3319 10.7504 70.7968 10.5081 70.2747 10.5016C69.8897 10.5016 69.8505 10.5147 69.7722 10.6653C69.7265 10.757 69.6874 11.0647 69.6874 11.3922C69.6874 11.9488 69.6874 11.9619 69.0413 13.5531C68.082 15.9367 66.9334 18.4513 66.3787 19.4074C65.7653 20.4551 65.315 20.5796 65.315 19.7021C65.315 19.224 65.4716 18.5954 65.8828 17.4167C66.3396 16.107 67.1945 13.4156 67.573 12.1059C67.8666 11.104 67.8666 11.0909 67.7622 10.8159C67.573 10.3248 66.8421 9.83364 66.2025 9.76816C65.9219 9.74197 65.8501 9.75506 65.7457 9.87293Z" fill="white"/>
<path d="M62.4701 9.90506C62.2417 10.0098 62.0524 10.3896 62.0524 10.7629C62.0524 10.8873 62.0329 10.9921 62.0133 10.9921C61.9937 10.9921 61.7392 10.8742 61.4455 10.7302C59.677 9.87887 58.1499 10.1343 56.897 11.4963C55.6114 12.8911 54.7956 15.3206 54.6977 18.0316C54.5998 20.7361 55.2851 22.7857 56.4728 23.3424C56.7142 23.4602 56.9165 23.4995 57.2494 23.4995H57.7062L58.039 23.1524C58.4697 22.7072 59.0962 21.7511 59.4877 20.9391C59.7879 20.3235 59.8989 20.1729 59.8989 20.389C59.8989 20.5855 60.2448 21.1683 60.558 21.5023C60.9626 21.9279 61.5434 22.2291 62.2286 22.3666C62.6659 22.4518 62.7833 22.4583 62.8682 22.3863C63.0183 22.2619 62.9922 22.144 62.7442 21.8428C62.2482 21.2272 62.0524 20.5658 62.0524 19.4919C62.0524 18.1757 62.3918 16.7023 63.2924 14.1681C64.1277 11.8172 64.4018 10.979 64.4018 10.7956C64.4018 10.442 64.0689 10.1277 63.4947 9.94435C63.0183 9.79374 62.7507 9.78064 62.4701 9.90506ZM60.2121 11.8106C60.3426 11.8696 60.5188 11.9809 60.6037 12.0595C60.9626 12.3934 61.1845 13.14 61.0735 13.6442C60.9235 14.3318 58.1695 20.245 57.791 20.7164C57.6474 20.8867 57.6148 20.8998 57.5169 20.8147C57.3538 20.6772 57.1841 20.3039 57.0862 19.8652C56.9361 19.2169 56.9753 17.5274 57.1515 16.6368C57.4321 15.1896 57.9672 13.8603 58.7112 12.7274C59.1549 12.0529 59.2724 11.9285 59.6183 11.8041C59.9315 11.6928 59.925 11.6928 60.2121 11.8106Z" fill="white"/>
<path d="M24.398 25.3992C24.9984 26.6041 26.2448 28.012 27.4652 28.8895C28.2352 29.433 29.8536 30.2581 30.8913 30.6313C34.9308 32.0785 40.4909 32.3863 46.6187 31.5154C48.8767 31.1945 51.3043 30.651 52.9423 30.1075C54.9392 29.4395 55.6506 28.8502 55.6571 27.881C55.6571 26.8005 55.0045 26.0933 53.7776 25.8575C52.8118 25.6676 51.9373 25.8379 48.5308 26.866C45.8813 27.6715 45.0329 27.9006 43.7473 28.1822C39.2509 29.1514 34.4087 29.3151 30.8913 28.6013C28.6855 28.156 26.2644 26.9053 24.5872 25.3533L24.1826 24.9735L24.398 25.3992Z" fill="white"/>
</svg>
